<?xml version="1.0" standalone="no"?>
<!DOCTYPE svg PUBLIC "-//W3C//DTD SVG 20010904//EN"
 "http://www.w3.org/TR/2001/REC-SVG-20010904/DTD/svg10.dtd">
<svg version="1.0" xmlns="http://www.w3.org/2000/svg"
 width="829.000000pt" height="829.000000pt" viewBox="0 0 829.000000 829.000000"
 preserveAspectRatio="xMidYMid meet">
<metadata>
Created by potrace 1.11, written by Peter Selinger 2001-2013
</metadata>
<g transform="translate(0.000000,829.000000) scale(0.100000,-0.100000)"
fill="#000000" stroke="none">
<path d="M3965 7820 c-338 -29 -673 -296 -874 -698 -203 -404 -303 -927 -288
-1497 7 -261 17 -364 53 -585 84 -506 248 -886 496 -1145 111 -117 242 -217
603 -460 241 -164 295 -205 391 -300 206 -203 304 -397 350 -696 20 -126 22
-420 5 -561 -48 -382 -193 -682 -385 -793 -137 -80 -336 -86 -479 -14 -255
128 -522 603 -717 1273 -45 157 -125 483 -165 676 -20 96 -38 181 -41 188 -4
13 -189 18 -197 5 -3 -5 1 -483 9 -1063 7 -580 13 -1142 14 -1247 l0 -193 101
0 100 0 70 148 c39 81 75 158 80 171 9 22 12 20 87 -56 98 -101 163 -154 285
-237 172 -117 314 -174 498 -202 121 -18 308 -7 432 25 371 97 704 453 891
954 146 390 216 857 203 1347 -20 703 -158 1190 -447 1570 -125 163 -282 294
-685 570 -283 193 -355 249 -456 349 -140 141 -232 295 -284 474 -33 116 -44
184 -55 345 -27 394 62 774 233 987 58 72 98 106 169 142 49 26 62 28 168 28
111 0 118 -1 185 -34 185 -92 353 -353 489 -761 91 -276 173 -613 283 -1165
l18 -90 100 0 100 0 -3 240 c-1 132 -5 664 -8 1183 l-7 942 -101 0 -102 0 -69
-142 c-38 -79 -71 -145 -73 -148 -2 -2 -19 14 -38 37 -76 92 -315 273 -449
340 -85 43 -212 81 -292 88 -37 3 -79 7 -93 9 -14 1 -61 -1 -105 -4z"/>
</g>
</svg>
